<?xml version="1.0" encoding="utf-8"?>
<!-- Generator: Adobe Illustrator 17.0.0, SVG Export Plug-In . SVG Version: 6.00 Build 0)  -->
<!DOCTYPE svg PUBLIC "-//W3C//DTD SVG 1.1//EN" "http://www.w3.org/Graphics/SVG/1.1/DTD/svg11.dtd">
<svg version="1.1" id="Layer_1" xmlns="http://www.w3.org/2000/svg" xmlns:xlink="http://www.w3.org/1999/xlink" x="0px" y="0px"
	 width="100px" height="100px" viewBox="0 0 100 100" enable-background="new 0 0 100 100" xml:space="preserve">
<g>
	<path fill="#E60063" d="M77.134,64.257H23.375c-2.119,0-3.84,1.718-3.84,3.84c0,2.122,1.721,3.84,3.84,3.84h53.759
		c2.122,0,3.84-1.718,3.84-3.84C80.974,65.974,79.256,64.257,77.134,64.257z"/>
	<path fill="#E60063" d="M38.735,60.417h23.04c4.245,0,7.68-3.442,7.68-7.68c6.367,0,11.52-5.16,11.52-11.52
		c0-6.367-5.152-11.52-11.52-11.52v-3.84h-38.4v26.88C31.055,56.974,34.497,60.417,38.735,60.417z M77.134,41.217
		c0,4.23-3.443,7.68-7.68,7.68v-15.36C73.691,33.537,77.134,36.98,77.134,41.217z M34.895,29.697h3.84v26.88
		c-2.122,0-3.84-1.718-3.84-3.84V29.697z"/>
</g>
</svg>
