<?xml version="1.0" encoding="utf-8"?>
<!-- Generator: Adobe Illustrator 16.0.0, SVG Export Plug-In . SVG Version: 6.00 Build 0)  -->
<!DOCTYPE svg PUBLIC "-//W3C//DTD SVG 1.1//EN" "http://www.w3.org/Graphics/SVG/1.1/DTD/svg11.dtd">
<svg version="1.1" id="Layer_1" xmlns="http://www.w3.org/2000/svg" xmlns:xlink="http://www.w3.org/1999/xlink" x="0px" y="0px"
	 width="80px" height="80px" viewBox="0 0 80 80" enable-background="new 0 0 80 80" xml:space="preserve">
<g>
	<defs>
		<rect id="SVGID_1_" width="80" height="80"/>
	</defs>
	<clipPath id="SVGID_2_">
		<use xlink:href="#SVGID_1_"  overflow="visible"/>
	</clipPath>
	<path clip-path="url(#SVGID_2_)" fill="#1D1D1B" d="M74.092,0H5.918C2.654,0,0,2.573,0,5.735v68.533C0,77.442,2.654,80,5.918,80
		h68.174C77.364,80,80,77.442,80,74.268V5.735C80,2.573,77.364,0,74.092,0 M24.258,66.974h-12.09V30.845h12.09V66.974z
		 M18.213,25.913h-0.078c-4.051,0-6.685-2.773-6.685-6.24c0-3.54,2.71-6.238,6.838-6.238c4.141,0,6.68,2.698,6.761,6.238
		C25.049,23.14,22.429,25.913,18.213,25.913 M67.833,66.974H55.742V47.651c0-4.868-1.748-8.176-6.118-8.176
		c-3.345,0-5.327,2.234-6.196,4.392c-0.323,0.771-0.41,1.846-0.41,2.93v20.177H30.95c0,0,0.149-32.735,0-36.129h12.068v5.129
		C44.624,33.508,47.49,30,53.911,30c7.954,0,13.922,5.159,13.922,16.26V66.974z M42.948,36.083c0.021-0.034,0.05-0.075,0.069-0.109
		v0.109H42.948z"/>
</g>
</svg>
