<?xml version="1.0" encoding="utf-8"?>
<!-- Generator: Adobe Illustrator 17.0.0, SVG Export Plug-In . SVG Version: 6.00 Build 0)  -->
<!DOCTYPE svg PUBLIC "-//W3C//DTD SVG 1.1//EN" "http://www.w3.org/Graphics/SVG/1.1/DTD/svg11.dtd">
<svg version="1.1" id="Layer_1" xmlns="http://www.w3.org/2000/svg" xmlns:xlink="http://www.w3.org/1999/xlink" x="0px" y="0px"
	 width="100px" height="100px" viewBox="0 0 100 100" enable-background="new 0 0 100 100" xml:space="preserve">
<path fill="#E5FF55" d="M34.612,81.243c4.919,0,9.026-2.516,10.399-5.954v-4.863l-0.012-0.031V36.488l25.567-5.805v20.874
	c-1.011-0.244-2.072-0.412-3.196-0.412c-6.03,0-10.924,3.758-10.924,8.389s4.894,8.389,10.924,8.389c4.07,0,7.578-1.722,9.45-4.257
	V16.551l-6.254,1.136l-25.567,5.818l-6.392,1.161v40.398c-1.236-0.38-2.584-0.599-3.995-0.599c-6.03,0-10.924,3.758-10.924,8.389
	S28.582,81.243,34.612,81.243z"/>
</svg>
