<?xml version="1.0" encoding="utf-8"?>
<!-- Generator: Adobe Illustrator 17.0.0, SVG Export Plug-In . SVG Version: 6.00 Build 0)  -->
<!DOCTYPE svg PUBLIC "-//W3C//DTD SVG 1.1//EN" "http://www.w3.org/Graphics/SVG/1.1/DTD/svg11.dtd">
<svg version="1.1" id="Layer_1" xmlns="http://www.w3.org/2000/svg" xmlns:xlink="http://www.w3.org/1999/xlink" x="0px" y="0px"
	 width="100px" height="100px" viewBox="0 0 100 100" enable-background="new 0 0 100 100" xml:space="preserve">
<path fill="#60E800" d="M22.665,54.205c0.266-2.628,2.617-4.546,5.25-4.28l7.133,0.728l0.026-0.209l-5.657-0.575
	c-2.302-0.235-3.954-2.558-3.683-5.191c0.268-2.633,2.349-4.576,4.655-4.341l18.93,1.931l2.687,0.039c0,0-3.888-1.761-0.9-15.822
	c2.979-14.057,10.854-8.779,10.854-8.779s0.104,12.008,0.527,13.712c0.427,1.705,9.664,19.676,9.664,19.676
	c0,0.95,5.723,1.901,5.719,2.86c-0.067,8.264,0,15.334,0,23.895c-6.137-1.604-9.419,3.212-22.53,3.212
	c-4.283,0-9.637-0.697-14.145-1.443l-11.803-1.203c-2.046-0.209-3.487-2.511-3.221-5.143c0.207-2.031,1.386-3.639,2.855-4.18
	l-1.486-0.153c-2.337-0.24-4.019-2.563-3.751-5.196c0.233-2.258,1.839-3.914,3.762-4.219l-0.604-0.061
	C24.313,59.192,22.397,56.838,22.665,54.205z"/>
</svg>
