<?xml version="1.0" encoding="utf-8"?>
<!-- Generator: Adobe Illustrator 16.0.0, SVG Export Plug-In . SVG Version: 6.00 Build 0)  -->
<!DOCTYPE svg PUBLIC "-//W3C//DTD SVG 1.1//EN" "http://www.w3.org/Graphics/SVG/1.1/DTD/svg11.dtd">
<svg version="1.1" id="Layer_1" xmlns="http://www.w3.org/2000/svg" xmlns:xlink="http://www.w3.org/1999/xlink" x="0px" y="0px"
	 width="80px" height="80px" viewBox="0 0 80 80" enable-background="new 0 0 80 80" xml:space="preserve">
<g>
	<defs>
		<rect id="SVGID_1_" width="80" height="80"/>
	</defs>
	<clipPath id="SVGID_2_">
		<use xlink:href="#SVGID_1_"  overflow="visible"/>
	</clipPath>
	<path clip-path="url(#SVGID_2_)" fill="#1D1D1B" d="M76.655,45.791c0.298-1.885,0.454-3.823,0.454-5.791
		c0-20.5-16.611-37.114-37.117-37.114c-1.965,0-3.901,0.159-5.796,0.454C30.781,1.226,26.748,0,22.422,0
		C10.037,0,0.002,10.039,0.002,22.429c0,4.326,1.221,8.357,3.34,11.78c-0.3,1.897-0.461,3.816-0.461,5.791
		c0,20.498,16.621,37.114,37.112,37.114c1.97,0,3.904-0.151,5.798-0.449C49.209,78.774,53.242,80,57.568,80
		C69.961,80,80,69.961,80,57.573C80,53.252,78.765,49.219,76.655,45.791 M57.617,56.88c-1.572,2.261-3.877,4.028-6.89,5.293
		c-3.022,1.274-6.587,1.909-10.713,1.909c-4.937,0-9.028-0.864-12.263-2.607c-2.285-1.25-4.146-2.93-5.574-5.02
		c-1.445-2.09-2.161-4.141-2.161-6.133c0-1.187,0.439-2.207,1.321-3.047c0.884-0.84,2.019-1.265,3.369-1.265
		c1.106,0,2.046,0.332,2.81,0.991c0.764,0.654,1.409,1.611,1.936,2.871c0.625,1.455,1.309,2.676,2.029,3.662
		c0.725,0.952,1.746,1.753,3.064,2.388c1.301,0.625,3.032,0.942,5.195,0.942c2.964,0,5.366-0.64,7.202-1.904
		c1.841-1.274,2.725-2.832,2.725-4.712c0-1.494-0.483-2.686-1.455-3.613c-0.986-0.938-2.261-1.65-3.848-2.153
		s-3.726-1.035-6.399-1.597c-3.584-0.786-6.589-1.699-9.023-2.744c-2.441-1.057-4.375-2.493-5.811-4.312
		c-1.445-1.831-2.161-4.109-2.161-6.804c0-2.576,0.754-4.885,2.28-6.885c1.516-2.007,3.701-3.545,6.57-4.622
		c2.854-1.069,6.216-1.604,10.056-1.604c3.076,0,5.737,0.354,7.988,1.06c2.251,0.725,4.116,1.66,5.62,2.839
		c1.484,1.187,2.573,2.419,3.281,3.73c0.693,1.311,1.035,2.59,1.035,3.835c0,1.16-0.449,2.209-1.318,3.13
		c-0.879,0.925-2.002,1.394-3.311,1.394c-1.182,0-2.1-0.273-2.754-0.854c-0.625-0.549-1.279-1.44-1.982-2.676
		c-0.898-1.733-1.973-3.074-3.223-4.028c-1.221-0.945-3.232-1.436-6.018-1.431c-2.585,0-4.651,0.53-6.216,1.555
		c-1.575,1.055-2.324,2.271-2.324,3.694c0,0.896,0.261,1.65,0.781,2.3c0.515,0.652,1.255,1.211,2.19,1.687
		c0.94,0.483,1.899,0.859,2.854,1.123c0.979,0.276,2.585,0.676,4.827,1.201c2.812,0.605,5.361,1.284,7.656,2.024
		c2.285,0.735,4.238,1.636,5.845,2.7c1.626,1.06,2.896,2.412,3.804,4.053c0.908,1.631,1.367,3.633,1.367,5.986
		C59.98,52.075,59.185,54.624,57.617,56.88"/>
</g>
</svg>
