<?xml version="1.0" encoding="utf-8"?>
<!-- Generator: Adobe Illustrator 16.0.0, SVG Export Plug-In . SVG Version: 6.00 Build 0)  -->
<!DOCTYPE svg PUBLIC "-//W3C//DTD SVG 1.1//EN" "http://www.w3.org/Graphics/SVG/1.1/DTD/svg11.dtd">
<svg version="1.1" id="Layer_1" xmlns="http://www.w3.org/2000/svg" xmlns:xlink="http://www.w3.org/1999/xlink" x="0px" y="0px"
	 width="80px" height="80px" viewBox="0 0 80 80" enable-background="new 0 0 80 80" xml:space="preserve">
<g>
	<defs>
		<rect id="SVGID_1_" y="12.442" width="80" height="55.115"/>
	</defs>
	<clipPath id="SVGID_2_">
		<use xlink:href="#SVGID_1_"  overflow="visible"/>
	</clipPath>
	<path clip-path="url(#SVGID_2_)" fill="#1D1D1B" d="M70.938,36.947c4.487-0.371,7.534-2.412,8.711-5.186
		c-1.621,0.993-6.65,2.09-9.429,1.045c-0.142-0.645-0.288-1.27-0.439-1.826c-2.124-7.783-9.36-14.046-16.963-13.284
		c0.61-0.241,1.235-0.485,1.86-0.69c0.84-0.296,5.747-1.094,4.971-2.835c-0.654-1.511-6.646,1.155-7.769,1.504
		c1.479-0.554,3.95-1.514,4.214-3.229c-2.29,0.31-4.526,1.387-6.26,2.966c0.625-0.681,1.104-1.501,1.201-2.38
		c-6.089,3.884-9.644,11.726-12.517,19.336c-2.261-2.197-4.265-3.916-6.055-4.876c-5.046-2.705-11.077-5.515-20.535-9.03
		c-0.286,3.125,1.543,7.295,6.838,10.056c-1.14-0.156-3.24,0.188-4.915,0.589c0.681,3.591,2.915,6.54,8.96,7.966
		c-2.766,0.186-4.189,0.811-5.491,2.171c1.26,2.487,4.336,5.43,9.856,4.824c-6.135,2.646-2.5,7.549,2.49,6.816
		c-8.516,8.799-21.951,8.154-29.666,0.786c20.134,27.456,63.923,16.24,70.447-10.203c4.893,0.049,7.769-1.699,9.556-3.601
		C77.178,38.341,73.096,37.846,70.938,36.947"/>
</g>
</svg>
